<svg width="45" height="45" viewBox="0 0 45 45" fill="none" xmlns="http://www.w3.org/2000/svg">
<path d="M22.5 45C34.9264 45 45 34.9264 45 22.5C45 10.0736 34.9264 0 22.5 0C10.0736 0 0 10.0736 0 22.5C0 34.9264 10.0736 45 22.5 45Z" fill="#039BE5"/>
<path d="M10.2955 22.0125L31.9893 13.6481C32.9961 13.2844 33.8755 13.8937 33.5493 15.4162L33.5511 15.4144L29.8574 32.8162C29.5836 34.05 28.8505 34.35 27.8249 33.7687L22.1999 29.6231L19.4868 32.2369C19.1868 32.5369 18.9336 32.79 18.3524 32.79L18.7518 27.0656L29.1768 17.6475C29.6305 17.2481 29.0755 17.0231 28.4774 17.4206L15.5943 25.5319L10.0405 23.7994C8.83488 23.4169 8.80863 22.5937 10.2955 22.0125Z" fill="white"/>
</svg>
